<svg xmlns="http://www.w3.org/2000/svg" viewBox="0 0 620 904" width="620" height="904"><rect width="620" height="904" fill="#ffffff"/><polygon points="26.0,878.0 168.0,878.0 168.0,736.0 26.0,736.0" fill="#dbeafe" fill-opacity="0.5" stroke="#94a3b8" stroke-width="0.8"/><polygon points="168.0,878.0 310.0,878.0 310.0,736.0 168.0,736.0" fill="#dbeafe" fill-opacity="0.5" stroke="#94a3b8" stroke-width="0.8"/><polygon points="310.0,878.0 452.0,878.0 452.0,736.0 310.0,736.0" fill="#dbeafe" fill-opacity="0.5" stroke="#94a3b8" stroke-width="0.8"/><polygon points="452.0,878.0 594.0,878.0 594.0,736.0 452.0,736.0" fill="#dbeafe" fill-opacity="0.5" stroke="#94a3b8" stroke-width="0.8"/><polygon points="26.0,736.0 168.0,736.0 168.0,594.0 26.0,594.0" fill="#dbeafe" fill-opacity="0.5" stroke="#94a3b8" stroke-width="0.8"/><polygon points="168.0,736.0 310.0,736.0 310.0,594.0 168.0,594.0" fill="#dbeafe" fill-opacity="0.5" stroke="#94a3b8" stroke-width="0.8"/><polygon points="310.0,736.0 452.0,736.0 452.0,594.0 310.0,594.0" fill="#dbeafe" fill-opacity="0.5" stroke="#94a3b8" stroke-width="0.8"/><polygon points="452.0,736.0 594.0,736.0 594.0,594.0 452.0,594.0" fill="#dbeafe" fill-opacity="0.5" stroke="#94a3b8" stroke-width="0.8"/><polygon points="26.0,594.0 168.0,594.0 168.0,452.0 26.0,452.0" fill="#dbeafe" fill-opacity="0.5" stroke="#94a3b8" stroke-width="0.8"/><polygon points="168.0,594.0 310.0,594.0 310.0,452.0 168.0,452.0" fill="#dbeafe" fill-opacity="0.5" stroke="#94a3b8" stroke-width="0.8"/><polygon points="310.0,594.0 452.0,594.0 452.0,452.0 310.0,452.0" fill="#dbeafe" fill-opacity="0.5" stroke="#94a3b8" stroke-width="0.8"/><polygon points="452.0,594.0 594.0,594.0 594.0,452.0 452.0,452.0" fill="#dbeafe" fill-opacity="0.5" stroke="#94a3b8" stroke-width="0.8"/><polygon points="26.0,452.0 168.0,452.0 168.0,310.0 26.0,310.0" fill="#dbeafe" fill-opacity="0.5" stroke="#94a3b8" stroke-width="0.8"/><polygon points="168.0,452.0 310.0,452.0 310.0,310.0 168.0,310.0" fill="#dbeafe" fill-opacity="0.5" stroke="#94a3b8" stroke-width="0.8"/><polygon points="310.0,452.0 452.0,452.0 452.0,310.0 310.0,310.0" fill="#dbeafe" fill-opacity="0.5" stroke="#94a3b8" stroke-width="0.8"/><polygon points="452.0,452.0 594.0,452.0 594.0,310.0 452.0,310.0" fill="#dbeafe" fill-opacity="0.5" stroke="#94a3b8" stroke-width="0.8"/><polygon points="26.0,310.0 168.0,310.0 168.0,168.0 26.0,168.0" fill="#dbeafe" fill-opacity="0.5" stroke="#94a3b8" stroke-width="0.8"/><polygon points="168.0,310.0 310.0,310.0 310.0,168.0 168.0,168.0" fill="#dbeafe" fill-opacity="0.5" stroke="#94a3b8" stroke-width="0.8"/><polygon points="310.0,310.0 452.0,310.0 452.0,168.0 310.0,168.0" fill="#dbeafe" fill-opacity="0.5" stroke="#94a3b8" stroke-width="0.8"/><polygon points="452.0,310.0 594.0,310.0 594.0,168.0 452.0,168.0" fill="#dbeafe" fill-opacity="0.5" stroke="#94a3b8" stroke-width="0.8"/><polygon points="26.0,168.0 168.0,168.0 168.0,26.0 26.0,26.0" fill="#dbeafe" fill-opacity="0.5" stroke="#94a3b8" stroke-width="0.8"/><polygon points="168.0,168.0 310.0,168.0 310.0,26.0 168.0,26.0" fill="#dbeafe" fill-opacity="0.5" stroke="#94a3b8" stroke-width="0.8"/><polygon points="310.0,168.0 452.0,168.0 452.0,26.0 310.0,26.0" fill="#dbeafe" fill-opacity="0.5" stroke="#94a3b8" stroke-width="0.8"/><polygon points="452.0,168.0 594.0,168.0 594.0,26.0 452.0,26.0" fill="#dbeafe" fill-opacity="0.5" stroke="#94a3b8" stroke-width="0.8"/><rect x="22.0" y="874.0" width="8" height="8" fill="#0f766e" stroke="#fff" stroke-width="0.8"/><rect x="164.0" y="874.0" width="8" height="8" fill="#0f766e" stroke="#fff" stroke-width="0.8"/><rect x="306.0" y="874.0" width="8" height="8" fill="#0f766e" stroke="#fff" stroke-width="0.8"/><rect x="448.0" y="874.0" width="8" height="8" fill="#0f766e" stroke="#fff" stroke-width="0.8"/><rect x="590.0" y="874.0" width="8" height="8" fill="#0f766e" stroke="#fff" stroke-width="0.8"/></svg>