<svg xmlns="http://www.w3.org/2000/svg" viewBox="0 0 620 620" width="620" height="620"><rect width="620" height="620" fill="#ffffff"/><polygon points="26.0,594.0 120.7,594.0 120.7,499.3 26.0,499.3" fill="#dbeafe" fill-opacity="0.5" stroke="#94a3b8" stroke-width="0.8"/><polygon points="120.7,594.0 215.3,594.0 215.3,499.3 120.7,499.3" fill="#dbeafe" fill-opacity="0.5" stroke="#94a3b8" stroke-width="0.8"/><polygon points="215.3,594.0 310.0,594.0 310.0,499.3 215.3,499.3" fill="#dbeafe" fill-opacity="0.5" stroke="#94a3b8" stroke-width="0.8"/><polygon points="310.0,594.0 404.7,594.0 404.7,499.3 310.0,499.3" fill="#dbeafe" fill-opacity="0.5" stroke="#94a3b8" stroke-width="0.8"/><polygon points="404.7,594.0 499.3,594.0 499.3,499.3 404.7,499.3" fill="#dbeafe" fill-opacity="0.5" stroke="#94a3b8" stroke-width="0.8"/><polygon points="499.3,594.0 594.0,594.0 594.0,499.3 499.3,499.3" fill="#dbeafe" fill-opacity="0.5" stroke="#94a3b8" stroke-width="0.8"/><polygon points="26.0,499.3 120.7,499.3 120.7,404.7 26.0,404.7" fill="#dbeafe" fill-opacity="0.5" stroke="#94a3b8" stroke-width="0.8"/><polygon points="120.7,499.3 215.3,499.3 215.3,404.7 120.7,404.7" fill="#dbeafe" fill-opacity="0.5" stroke="#94a3b8" stroke-width="0.8"/><polygon points="215.3,499.3 310.0,499.3 310.0,404.7 215.3,404.7" fill="#dbeafe" fill-opacity="0.5" stroke="#94a3b8" stroke-width="0.8"/><polygon points="310.0,499.3 404.7,499.3 404.7,404.7 310.0,404.7" fill="#dbeafe" fill-opacity="0.5" stroke="#94a3b8" stroke-width="0.8"/><polygon points="404.7,499.3 499.3,499.3 499.3,404.7 404.7,404.7" fill="#dbeafe" fill-opacity="0.5" stroke="#94a3b8" stroke-width="0.8"/><polygon points="499.3,499.3 594.0,499.3 594.0,404.7 499.3,404.7" fill="#dbeafe" fill-opacity="0.5" stroke="#94a3b8" stroke-width="0.8"/><polygon points="26.0,404.7 120.7,404.7 120.7,310.0 26.0,310.0" fill="#dbeafe" fill-opacity="0.5" stroke="#94a3b8" stroke-width="0.8"/><polygon points="120.7,404.7 215.3,404.7 215.3,310.0 120.7,310.0" fill="#dbeafe" fill-opacity="0.5" stroke="#94a3b8" stroke-width="0.8"/><polygon points="215.3,404.7 310.0,404.7 310.0,310.0 215.3,310.0" fill="#dbeafe" fill-opacity="0.5" stroke="#94a3b8" stroke-width="0.8"/><polygon points="310.0,404.7 404.7,404.7 404.7,310.0 310.0,310.0" fill="#dbeafe" fill-opacity="0.5" stroke="#94a3b8" stroke-width="0.8"/><polygon points="404.7,404.7 499.3,404.7 499.3,310.0 404.7,310.0" fill="#dbeafe" fill-opacity="0.5" stroke="#94a3b8" stroke-width="0.8"/><polygon points="499.3,404.7 594.0,404.7 594.0,310.0 499.3,310.0" fill="#dbeafe" fill-opacity="0.5" stroke="#94a3b8" stroke-width="0.8"/><polygon points="26.0,310.0 120.7,310.0 120.7,215.3 26.0,215.3" fill="#dbeafe" fill-opacity="0.5" stroke="#94a3b8" stroke-width="0.8"/><polygon points="120.7,310.0 215.3,310.0 215.3,215.3 120.7,215.3" fill="#dbeafe" fill-opacity="0.5" stroke="#94a3b8" stroke-width="0.8"/><polygon points="215.3,310.0 310.0,310.0 310.0,215.3 215.3,215.3" fill="#dbeafe" fill-opacity="0.5" stroke="#94a3b8" stroke-width="0.8"/><polygon points="310.0,310.0 404.7,310.0 404.7,215.3 310.0,215.3" fill="#dbeafe" fill-opacity="0.5" stroke="#94a3b8" stroke-width="0.8"/><polygon points="404.7,310.0 499.3,310.0 499.3,215.3 404.7,215.3" fill="#dbeafe" fill-opacity="0.5" stroke="#94a3b8" stroke-width="0.8"/><polygon points="499.3,310.0 594.0,310.0 594.0,215.3 499.3,215.3" fill="#dbeafe" fill-opacity="0.5" stroke="#94a3b8" stroke-width="0.8"/><polygon points="26.0,215.3 120.7,215.3 120.7,120.7 26.0,120.7" fill="#dbeafe" fill-opacity="0.5" stroke="#94a3b8" stroke-width="0.8"/><polygon points="120.7,215.3 215.3,215.3 215.3,120.7 120.7,120.7" fill="#dbeafe" fill-opacity="0.5" stroke="#94a3b8" stroke-width="0.8"/><polygon points="215.3,215.3 310.0,215.3 310.0,120.7 215.3,120.7" fill="#dbeafe" fill-opacity="0.5" stroke="#94a3b8" stroke-width="0.8"/><polygon points="310.0,215.3 404.7,215.3 404.7,120.7 310.0,120.7" fill="#dbeafe" fill-opacity="0.5" stroke="#94a3b8" stroke-width="0.8"/><polygon points="404.7,215.3 499.3,215.3 499.3,120.7 404.7,120.7" fill="#dbeafe" fill-opacity="0.5" stroke="#94a3b8" stroke-width="0.8"/><polygon points="499.3,215.3 594.0,215.3 594.0,120.7 499.3,120.7" fill="#dbeafe" fill-opacity="0.5" stroke="#94a3b8" stroke-width="0.8"/><polygon points="26.0,120.7 120.7,120.7 120.7,26.0 26.0,26.0" fill="#dbeafe" fill-opacity="0.5" stroke="#94a3b8" stroke-width="0.8"/><polygon points="120.7,120.7 215.3,120.7 215.3,26.0 120.7,26.0" fill="#dbeafe" fill-opacity="0.5" stroke="#94a3b8" stroke-width="0.8"/><polygon points="215.3,120.7 310.0,120.7 310.0,26.0 215.3,26.0" fill="#dbeafe" fill-opacity="0.5" stroke="#94a3b8" stroke-width="0.8"/><polygon points="310.0,120.7 404.7,120.7 404.7,26.0 310.0,26.0" fill="#dbeafe" fill-opacity="0.5" stroke="#94a3b8" stroke-width="0.8"/><polygon points="404.7,120.7 499.3,120.7 499.3,26.0 404.7,26.0" fill="#dbeafe" fill-opacity="0.5" stroke="#94a3b8" stroke-width="0.8"/><polygon points="499.3,120.7 594.0,120.7 594.0,26.0 499.3,26.0" fill="#dbeafe" fill-opacity="0.5" stroke="#94a3b8" stroke-width="0.8"/><rect x="22.0" y="590.0" width="8" height="8" fill="#0f766e" stroke="#fff" stroke-width="0.8"/><rect x="116.7" y="590.0" width="8" height="8" fill="#0f766e" stroke="#fff" stroke-width="0.8"/><rect x="211.3" y="590.0" width="8" height="8" fill="#0f766e" stroke="#fff" stroke-width="0.8"/><rect x="306.0" y="590.0" width="8" height="8" fill="#0f766e" stroke="#fff" stroke-width="0.8"/><rect x="400.7" y="590.0" width="8" height="8" fill="#0f766e" stroke="#fff" stroke-width="0.8"/><rect x="495.3" y="590.0" width="8" height="8" fill="#0f766e" stroke="#fff" stroke-width="0.8"/><rect x="590.0" y="590.0" width="8" height="8" fill="#0f766e" stroke="#fff" stroke-width="0.8"/><rect x="22.0" y="495.3" width="8" height="8" fill="#0f766e" stroke="#fff" stroke-width="0.8"/><rect x="590.0" y="495.3" width="8" height="8" fill="#0f766e" stroke="#fff" stroke-width="0.8"/><rect x="22.0" y="400.7" width="8" height="8" fill="#0f766e" stroke="#fff" stroke-width="0.8"/><rect x="590.0" y="400.7" width="8" height="8" fill="#0f766e" stroke="#fff" stroke-width="0.8"/><rect x="22.0" y="306.0" width="8" height="8" fill="#0f766e" stroke="#fff" stroke-width="0.8"/><rect x="590.0" y="306.0" width="8" height="8" fill="#0f766e" stroke="#fff" stroke-width="0.8"/><rect x="22.0" y="211.3" width="8" height="8" fill="#0f766e" stroke="#fff" stroke-width="0.8"/><rect x="590.0" y="211.3" width="8" height="8" fill="#0f766e" stroke="#fff" stroke-width="0.8"/><rect x="22.0" y="116.7" width="8" height="8" fill="#0f766e" stroke="#fff" stroke-width="0.8"/><rect x="590.0" y="116.7" width="8" height="8" fill="#0f766e" stroke="#fff" stroke-width="0.8"/><rect x="22.0" y="22.0" width="8" height="8" fill="#0f766e" stroke="#fff" stroke-width="0.8"/><rect x="116.7" y="22.0" width="8" height="8" fill="#0f766e" stroke="#fff" stroke-width="0.8"/><rect x="211.3" y="22.0" width="8" height="8" fill="#0f766e" stroke="#fff" stroke-width="0.8"/><rect x="306.0" y="22.0" width="8" height="8" fill="#0f766e" stroke="#fff" stroke-width="0.8"/><rect x="400.7" y="22.0" width="8" height="8" fill="#0f766e" stroke="#fff" stroke-width="0.8"/><rect x="495.3" y="22.0" width="8" height="8" fill="#0f766e" stroke="#fff" stroke-width="0.8"/><rect x="590.0" y="22.0" width="8" height="8" fill="#0f766e" stroke="#fff" stroke-width="0.8"/></svg>