<svg xmlns="http://www.w3.org/2000/svg" viewBox="0 0 680 440" width="680" height="440"><rect width="680" height="440" fill="#ffffff"/><polygon points="384.9,51.9 418.5,45.4 346.7,86.9 313.1,93.3" fill="#dbeafe" fill-opacity="0.5" stroke="#94a3b8" stroke-width="0.8"/><polygon points="418.5,45.4 452.1,38.9 380.4,80.4 346.7,86.9" fill="#dbeafe" fill-opacity="0.5" stroke="#94a3b8" stroke-width="0.8"/><polygon points="452.1,38.9 485.8,32.5 414.0,73.9 380.4,80.4" fill="#dbeafe" fill-opacity="0.5" stroke="#94a3b8" stroke-width="0.8"/><polygon points="485.8,32.5 519.4,26.0 447.7,67.4 414.0,73.9" fill="#dbeafe" fill-opacity="0.5" stroke="#94a3b8" stroke-width="0.8"/><polygon points="519.4,26.0 553.1,71.3 481.3,112.8 447.7,67.4" fill="#dbeafe" fill-opacity="0.5" stroke="#94a3b8" stroke-width="0.8"/><polygon points="553.1,71.3 586.7,116.6 514.9,158.1 481.3,112.8" fill="#dbeafe" fill-opacity="0.5" stroke="#94a3b8" stroke-width="0.8"/><polygon points="586.7,116.6 620.4,162.0 548.6,203.4 514.9,158.1" fill="#dbeafe" fill-opacity="0.5" stroke="#94a3b8" stroke-width="0.8"/><polygon points="620.4,162.0 654.0,207.3 582.2,248.7 548.6,203.4" fill="#dbeafe" fill-opacity="0.5" stroke="#94a3b8" stroke-width="0.8"/><polygon points="313.1,93.3 346.7,86.9 275.0,128.3 241.3,134.8" fill="#dbeafe" fill-opacity="0.5" stroke="#94a3b8" stroke-width="0.8"/><polygon points="346.7,86.9 380.4,80.4 308.6,121.8 275.0,128.3" fill="#dbeafe" fill-opacity="0.5" stroke="#94a3b8" stroke-width="0.8"/><polygon points="380.4,80.4 414.0,73.9 342.2,115.3 308.6,121.8" fill="#dbeafe" fill-opacity="0.5" stroke="#94a3b8" stroke-width="0.8"/><polygon points="414.0,73.9 447.7,67.4 375.9,108.9 342.2,115.3" fill="#dbeafe" fill-opacity="0.5" stroke="#94a3b8" stroke-width="0.8"/><polygon points="447.7,67.4 481.3,112.8 409.5,154.2 375.9,108.9" fill="#dbeafe" fill-opacity="0.5" stroke="#94a3b8" stroke-width="0.8"/><polygon points="481.3,112.8 514.9,158.1 443.2,199.5 409.5,154.2" fill="#dbeafe" fill-opacity="0.5" stroke="#94a3b8" stroke-width="0.8"/><polygon points="514.9,158.1 548.6,203.4 476.8,244.8 443.2,199.5" fill="#dbeafe" fill-opacity="0.5" stroke="#94a3b8" stroke-width="0.8"/><polygon points="548.6,203.4 582.2,248.7 510.5,290.2 476.8,244.8" fill="#dbeafe" fill-opacity="0.5" stroke="#94a3b8" stroke-width="0.8"/><polygon points="241.3,134.8 275.0,128.3 203.2,169.7 169.5,176.2" fill="#dbeafe" fill-opacity="0.5" stroke="#94a3b8" stroke-width="0.8"/><polygon points="275.0,128.3 308.6,121.8 236.8,163.3 203.2,169.7" fill="#dbeafe" fill-opacity="0.5" stroke="#94a3b8" stroke-width="0.8"/><polygon points="308.6,121.8 342.2,115.3 270.5,156.8 236.8,163.3" fill="#dbeafe" fill-opacity="0.5" stroke="#94a3b8" stroke-width="0.8"/><polygon points="342.2,115.3 375.9,108.9 304.1,150.3 270.5,156.8" fill="#dbeafe" fill-opacity="0.5" stroke="#94a3b8" stroke-width="0.8"/><polygon points="375.9,108.9 409.5,154.2 337.8,195.6 304.1,150.3" fill="#dbeafe" fill-opacity="0.5" stroke="#94a3b8" stroke-width="0.8"/><polygon points="409.5,154.2 443.2,199.5 371.4,241.0 337.8,195.6" fill="#dbeafe" fill-opacity="0.5" stroke="#94a3b8" stroke-width="0.8"/><polygon points="443.2,199.5 476.8,244.8 405.0,286.3 371.4,241.0" fill="#dbeafe" fill-opacity="0.5" stroke="#94a3b8" stroke-width="0.8"/><polygon points="476.8,244.8 510.5,290.2 438.7,331.6 405.0,286.3" fill="#dbeafe" fill-opacity="0.5" stroke="#94a3b8" stroke-width="0.8"/><polygon points="169.5,176.2 203.2,169.7 131.4,211.2 97.8,217.6" fill="#dbeafe" fill-opacity="0.5" stroke="#94a3b8" stroke-width="0.8"/><polygon points="203.2,169.7 236.8,163.3 165.1,204.7 131.4,211.2" fill="#dbeafe" fill-opacity="0.5" stroke="#94a3b8" stroke-width="0.8"/><polygon points="236.8,163.3 270.5,156.8 198.7,198.2 165.1,204.7" fill="#dbeafe" fill-opacity="0.5" stroke="#94a3b8" stroke-width="0.8"/><polygon points="270.5,156.8 304.1,150.3 232.3,191.7 198.7,198.2" fill="#dbeafe" fill-opacity="0.5" stroke="#94a3b8" stroke-width="0.8"/><polygon points="304.1,150.3 337.8,195.6 266.0,237.1 232.3,191.7" fill="#dbeafe" fill-opacity="0.5" stroke="#94a3b8" stroke-width="0.8"/><polygon points="337.8,195.6 371.4,241.0 299.6,282.4 266.0,237.1" fill="#dbeafe" fill-opacity="0.5" stroke="#94a3b8" stroke-width="0.8"/><polygon points="371.4,241.0 405.0,286.3 333.3,327.7 299.6,282.4" fill="#dbeafe" fill-opacity="0.5" stroke="#94a3b8" stroke-width="0.8"/><polygon points="405.0,286.3 438.7,331.6 366.9,373.0 333.3,327.7" fill="#dbeafe" fill-opacity="0.5" stroke="#94a3b8" stroke-width="0.8"/><polygon points="97.8,217.6 131.4,211.2 59.6,252.6 26.0,259.1" fill="#dbeafe" fill-opacity="0.5" stroke="#94a3b8" stroke-width="0.8"/><polygon points="131.4,211.2 165.1,204.7 93.3,246.1 59.6,252.6" fill="#dbeafe" fill-opacity="0.5" stroke="#94a3b8" stroke-width="0.8"/><polygon points="165.1,204.7 198.7,198.2 126.9,239.7 93.3,246.1" fill="#dbeafe" fill-opacity="0.5" stroke="#94a3b8" stroke-width="0.8"/><polygon points="198.7,198.2 232.3,191.7 160.6,233.2 126.9,239.7" fill="#dbeafe" fill-opacity="0.5" stroke="#94a3b8" stroke-width="0.8"/><polygon points="232.3,191.7 266.0,237.1 194.2,278.5 160.6,233.2" fill="#dbeafe" fill-opacity="0.5" stroke="#94a3b8" stroke-width="0.8"/><polygon points="266.0,237.1 299.6,282.4 227.9,323.8 194.2,278.5" fill="#dbeafe" fill-opacity="0.5" stroke="#94a3b8" stroke-width="0.8"/><polygon points="299.6,282.4 333.3,327.7 261.5,369.2 227.9,323.8" fill="#dbeafe" fill-opacity="0.5" stroke="#94a3b8" stroke-width="0.8"/><polygon points="333.3,327.7 366.9,373.0 295.1,414.5 261.5,369.2" fill="#dbeafe" fill-opacity="0.5" stroke="#94a3b8" stroke-width="0.8"/><rect x="380.9" y="47.9" width="8" height="8" fill="#0f766e" stroke="#fff" stroke-width="0.8"/><rect x="650.0" y="203.3" width="8" height="8" fill="#0f766e" stroke="#fff" stroke-width="0.8"/><rect x="309.1" y="89.3" width="8" height="8" fill="#0f766e" stroke="#fff" stroke-width="0.8"/><rect x="578.2" y="244.7" width="8" height="8" fill="#0f766e" stroke="#fff" stroke-width="0.8"/><rect x="237.3" y="130.8" width="8" height="8" fill="#0f766e" stroke="#fff" stroke-width="0.8"/><rect x="506.5" y="286.2" width="8" height="8" fill="#0f766e" stroke="#fff" stroke-width="0.8"/><rect x="165.5" y="172.2" width="8" height="8" fill="#0f766e" stroke="#fff" stroke-width="0.8"/><rect x="434.7" y="327.6" width="8" height="8" fill="#0f766e" stroke="#fff" stroke-width="0.8"/><rect x="93.8" y="213.6" width="8" height="8" fill="#0f766e" stroke="#fff" stroke-width="0.8"/><rect x="362.9" y="369.0" width="8" height="8" fill="#0f766e" stroke="#fff" stroke-width="0.8"/><rect x="22.0" y="255.1" width="8" height="8" fill="#0f766e" stroke="#fff" stroke-width="0.8"/><rect x="291.1" y="410.5" width="8" height="8" fill="#0f766e" stroke="#fff" stroke-width="0.8"/></svg>