<svg xmlns="http://www.w3.org/2000/svg" viewBox="0 0 900 900" width="900" height="900"><rect width="900" height="900" fill="#ffffff"/><polygon points="282.6,874.0 325.4,874.0 320.8,822.0 278.7,829.4" fill="#dbeafe" fill-opacity="0.5" stroke="#94a3b8" stroke-width="0.8"/><polygon points="278.7,829.4 320.8,822.0 307.3,771.6 267.2,786.2" fill="#dbeafe" fill-opacity="0.5" stroke="#94a3b8" stroke-width="0.8"/><polygon points="267.2,786.2 307.3,771.6 285.3,724.3 248.2,745.7" fill="#dbeafe" fill-opacity="0.5" stroke="#94a3b8" stroke-width="0.8"/><polygon points="248.2,745.7 285.3,724.3 255.4,681.6 222.6,709.0" fill="#dbeafe" fill-opacity="0.5" stroke="#94a3b8" stroke-width="0.8"/><polygon points="222.6,709.0 255.4,681.6 218.4,644.6 191.0,677.4" fill="#dbeafe" fill-opacity="0.5" stroke="#94a3b8" stroke-width="0.8"/><polygon points="191.0,677.4 218.4,644.6 175.7,614.7 154.3,651.8" fill="#dbeafe" fill-opacity="0.5" stroke="#94a3b8" stroke-width="0.8"/><polygon points="154.3,651.8 175.7,614.7 128.4,592.7 113.8,632.8" fill="#dbeafe" fill-opacity="0.5" stroke="#94a3b8" stroke-width="0.8"/><polygon points="113.8,632.8 128.4,592.7 78.0,579.2 70.6,621.3" fill="#dbeafe" fill-opacity="0.5" stroke="#94a3b8" stroke-width="0.8"/><polygon points="70.6,621.3 78.0,579.2 26.0,574.6 26.0,617.4" fill="#dbeafe" fill-opacity="0.5" stroke="#94a3b8" stroke-width="0.8"/><polygon points="325.4,874.0 385.3,874.0 379.8,811.6 320.8,822.0" fill="#dbeafe" fill-opacity="0.5" stroke="#94a3b8" stroke-width="0.8"/><polygon points="320.8,822.0 379.8,811.6 363.6,751.1 307.3,771.6" fill="#dbeafe" fill-opacity="0.5" stroke="#94a3b8" stroke-width="0.8"/><polygon points="307.3,771.6 363.6,751.1 337.1,694.4 285.3,724.3" fill="#dbeafe" fill-opacity="0.5" stroke="#94a3b8" stroke-width="0.8"/><polygon points="285.3,724.3 337.1,694.4 301.2,643.1 255.4,681.6" fill="#dbeafe" fill-opacity="0.5" stroke="#94a3b8" stroke-width="0.8"/><polygon points="255.4,681.6 301.2,643.1 256.9,598.8 218.4,644.6" fill="#dbeafe" fill-opacity="0.5" stroke="#94a3b8" stroke-width="0.8"/><polygon points="218.4,644.6 256.9,598.8 205.6,562.9 175.7,614.7" fill="#dbeafe" fill-opacity="0.5" stroke="#94a3b8" stroke-width="0.8"/><polygon points="175.7,614.7 205.6,562.9 148.9,536.4 128.4,592.7" fill="#dbeafe" fill-opacity="0.5" stroke="#94a3b8" stroke-width="0.8"/><polygon points="128.4,592.7 148.9,536.4 88.4,520.2 78.0,579.2" fill="#dbeafe" fill-opacity="0.5" stroke="#94a3b8" stroke-width="0.8"/><polygon points="78.0,579.2 88.4,520.2 26.0,514.7 26.0,574.6" fill="#dbeafe" fill-opacity="0.5" stroke="#94a3b8" stroke-width="0.8"/><polygon points="385.3,874.0 470.8,874.0 464.1,796.8 379.8,811.6" fill="#dbeafe" fill-opacity="0.5" stroke="#94a3b8" stroke-width="0.8"/><polygon points="379.8,811.6 464.1,796.8 444.0,721.9 363.6,751.1" fill="#dbeafe" fill-opacity="0.5" stroke="#94a3b8" stroke-width="0.8"/><polygon points="363.6,751.1 444.0,721.9 411.2,651.6 337.1,694.4" fill="#dbeafe" fill-opacity="0.5" stroke="#94a3b8" stroke-width="0.8"/><polygon points="337.1,694.4 411.2,651.6 366.8,588.1 301.2,643.1" fill="#dbeafe" fill-opacity="0.5" stroke="#94a3b8" stroke-width="0.8"/><polygon points="301.2,643.1 366.8,588.1 311.9,533.2 256.9,598.8" fill="#dbeafe" fill-opacity="0.5" stroke="#94a3b8" stroke-width="0.8"/><polygon points="256.9,598.8 311.9,533.2 248.4,488.8 205.6,562.9" fill="#dbeafe" fill-opacity="0.5" stroke="#94a3b8" stroke-width="0.8"/><polygon points="205.6,562.9 248.4,488.8 178.1,456.0 148.9,536.4" fill="#dbeafe" fill-opacity="0.5" stroke="#94a3b8" stroke-width="0.8"/><polygon points="148.9,536.4 178.1,456.0 103.2,435.9 88.4,520.2" fill="#dbeafe" fill-opacity="0.5" stroke="#94a3b8" stroke-width="0.8"/><polygon points="88.4,520.2 103.2,435.9 26.0,429.2 26.0,514.7" fill="#dbeafe" fill-opacity="0.5" stroke="#94a3b8" stroke-width="0.8"/><polygon points="470.8,874.0 603.4,874.0 594.6,773.7 464.1,796.8" fill="#dbeafe" fill-opacity="0.5" stroke="#94a3b8" stroke-width="0.8"/><polygon points="464.1,796.8 594.6,773.7 568.6,676.5 444.0,721.9" fill="#dbeafe" fill-opacity="0.5" stroke="#94a3b8" stroke-width="0.8"/><polygon points="444.0,721.9 568.6,676.5 526.1,585.3 411.2,651.6" fill="#dbeafe" fill-opacity="0.5" stroke="#94a3b8" stroke-width="0.8"/><polygon points="411.2,651.6 526.1,585.3 468.3,502.8 366.8,588.1" fill="#dbeafe" fill-opacity="0.5" stroke="#94a3b8" stroke-width="0.8"/><polygon points="366.8,588.1 468.3,502.8 397.2,431.7 311.9,533.2" fill="#dbeafe" fill-opacity="0.5" stroke="#94a3b8" stroke-width="0.8"/><polygon points="311.9,533.2 397.2,431.7 314.7,373.9 248.4,488.8" fill="#dbeafe" fill-opacity="0.5" stroke="#94a3b8" stroke-width="0.8"/><polygon points="248.4,488.8 314.7,373.9 223.5,331.4 178.1,456.0" fill="#dbeafe" fill-opacity="0.5" stroke="#94a3b8" stroke-width="0.8"/><polygon points="178.1,456.0 223.5,331.4 126.3,305.4 103.2,435.9" fill="#dbeafe" fill-opacity="0.5" stroke="#94a3b8" stroke-width="0.8"/><polygon points="103.2,435.9 126.3,305.4 26.0,296.6 26.0,429.2" fill="#dbeafe" fill-opacity="0.5" stroke="#94a3b8" stroke-width="0.8"/><polygon points="603.4,874.0 795.9,874.0 784.2,740.3 594.6,773.7" fill="#dbeafe" fill-opacity="0.5" stroke="#94a3b8" stroke-width="0.8"/><polygon points="594.6,773.7 784.2,740.3 749.5,610.7 568.6,676.5" fill="#dbeafe" fill-opacity="0.5" stroke="#94a3b8" stroke-width="0.8"/><polygon points="568.6,676.5 749.5,610.7 692.7,489.1 526.1,585.3" fill="#dbeafe" fill-opacity="0.5" stroke="#94a3b8" stroke-width="0.8"/><polygon points="526.1,585.3 692.7,489.1 615.8,379.1 468.3,502.8" fill="#dbeafe" fill-opacity="0.5" stroke="#94a3b8" stroke-width="0.8"/><polygon points="468.3,502.8 615.8,379.1 520.9,284.2 397.2,431.7" fill="#dbeafe" fill-opacity="0.5" stroke="#94a3b8" stroke-width="0.8"/><polygon points="397.2,431.7 520.9,284.2 410.9,207.3 314.7,373.9" fill="#dbeafe" fill-opacity="0.5" stroke="#94a3b8" stroke-width="0.8"/><polygon points="314.7,373.9 410.9,207.3 289.3,150.5 223.5,331.4" fill="#dbeafe" fill-opacity="0.5" stroke="#94a3b8" stroke-width="0.8"/><polygon points="223.5,331.4 289.3,150.5 159.7,115.8 126.3,305.4" fill="#dbeafe" fill-opacity="0.5" stroke="#94a3b8" stroke-width="0.8"/><polygon points="126.3,305.4 159.7,115.8 26.0,104.1 26.0,296.6" fill="#dbeafe" fill-opacity="0.5" stroke="#94a3b8" stroke-width="0.8"/><rect x="278.6" y="870.0" width="8" height="8" fill="#0f766e" stroke="#fff" stroke-width="0.8"/><rect x="22.0" y="613.4" width="8" height="8" fill="#0f766e" stroke="#fff" stroke-width="0.8"/><rect x="321.4" y="870.0" width="8" height="8" fill="#0f766e" stroke="#fff" stroke-width="0.8"/><rect x="22.0" y="570.6" width="8" height="8" fill="#0f766e" stroke="#fff" stroke-width="0.8"/><rect x="381.3" y="870.0" width="8" height="8" fill="#0f766e" stroke="#fff" stroke-width="0.8"/><rect x="22.0" y="510.7" width="8" height="8" fill="#0f766e" stroke="#fff" stroke-width="0.8"/><rect x="466.8" y="870.0" width="8" height="8" fill="#0f766e" stroke="#fff" stroke-width="0.8"/><rect x="22.0" y="425.2" width="8" height="8" fill="#0f766e" stroke="#fff" stroke-width="0.8"/><rect x="599.4" y="870.0" width="8" height="8" fill="#0f766e" stroke="#fff" stroke-width="0.8"/><rect x="22.0" y="292.6" width="8" height="8" fill="#0f766e" stroke="#fff" stroke-width="0.8"/><rect x="791.9" y="870.0" width="8" height="8" fill="#0f766e" stroke="#fff" stroke-width="0.8"/><rect x="22.0" y="100.1" width="8" height="8" fill="#0f766e" stroke="#fff" stroke-width="0.8"/></svg>