<svg xmlns="http://www.w3.org/2000/svg" viewBox="0 0 900 570" width="900" height="570"><rect width="900" height="570" fill="#ffffff"/><polygon points="26.0,54.1 147.8,124.5 147.8,96.3 26.0,26.0" fill="#dbeafe" fill-opacity="0.5" stroke="#94a3b8" stroke-width="0.8"/><polygon points="147.8,124.5 269.7,194.8 269.7,166.7 147.8,96.3" fill="#dbeafe" fill-opacity="0.5" stroke="#94a3b8" stroke-width="0.8"/><polygon points="269.7,194.8 391.5,265.2 391.5,237.0 269.7,166.7" fill="#dbeafe" fill-opacity="0.5" stroke="#94a3b8" stroke-width="0.8"/><polygon points="391.5,265.2 513.3,335.5 513.3,307.4 391.5,237.0" fill="#dbeafe" fill-opacity="0.5" stroke="#94a3b8" stroke-width="0.8"/><polygon points="513.3,335.5 635.2,405.8 635.2,377.7 513.3,307.4" fill="#dbeafe" fill-opacity="0.5" stroke="#94a3b8" stroke-width="0.8"/><polygon points="635.2,405.8 757.0,476.2 757.0,448.0 635.2,377.7" fill="#dbeafe" fill-opacity="0.5" stroke="#94a3b8" stroke-width="0.8"/><rect x="22.0" y="50.1" width="8" height="8" fill="#0f766e" stroke="#fff" stroke-width="0.8"/><rect x="22.0" y="22.0" width="8" height="8" fill="#0f766e" stroke="#fff" stroke-width="0.8"/></svg>