<svg xmlns="http://www.w3.org/2000/svg" viewBox="0 0 900 412" width="900" height="412"><rect width="900" height="412" fill="#ffffff"/><polygon points="26.0,386.3 206.1,386.3 206.1,311.2 26.0,326.2" fill="#dbeafe" fill-opacity="0.5" stroke="#94a3b8" stroke-width="0.8"/><polygon points="26.0,326.2 206.1,311.2 206.1,236.2 26.0,266.2" fill="#dbeafe" fill-opacity="0.5" stroke="#94a3b8" stroke-width="0.8"/><polygon points="26.0,266.2 206.1,236.2 206.1,161.1 26.0,206.1" fill="#dbeafe" fill-opacity="0.5" stroke="#94a3b8" stroke-width="0.8"/><polygon points="206.1,386.3 386.3,386.3 386.3,296.2 206.1,311.2" fill="#dbeafe" fill-opacity="0.5" stroke="#94a3b8" stroke-width="0.8"/><polygon points="206.1,311.2 386.3,296.2 386.3,206.1 206.1,236.2" fill="#dbeafe" fill-opacity="0.5" stroke="#94a3b8" stroke-width="0.8"/><polygon points="206.1,236.2 386.3,206.1 386.3,116.1 206.1,161.1" fill="#dbeafe" fill-opacity="0.5" stroke="#94a3b8" stroke-width="0.8"/><polygon points="386.3,386.3 566.4,386.3 566.4,281.2 386.3,296.2" fill="#dbeafe" fill-opacity="0.5" stroke="#94a3b8" stroke-width="0.8"/><polygon points="386.3,296.2 566.4,281.2 566.4,176.1 386.3,206.1" fill="#dbeafe" fill-opacity="0.5" stroke="#94a3b8" stroke-width="0.8"/><polygon points="386.3,206.1 566.4,176.1 566.4,71.0 386.3,116.1" fill="#dbeafe" fill-opacity="0.5" stroke="#94a3b8" stroke-width="0.8"/><polygon points="566.4,386.3 746.5,386.3 746.5,266.2 566.4,281.2" fill="#dbeafe" fill-opacity="0.5" stroke="#94a3b8" stroke-width="0.8"/><polygon points="566.4,281.2 746.5,266.2 746.5,146.1 566.4,176.1" fill="#dbeafe" fill-opacity="0.5" stroke="#94a3b8" stroke-width="0.8"/><polygon points="566.4,176.1 746.5,146.1 746.5,26.0 566.4,71.0" fill="#dbeafe" fill-opacity="0.5" stroke="#94a3b8" stroke-width="0.8"/><rect x="22.0" y="382.3" width="8" height="8" fill="#0f766e" stroke="#fff" stroke-width="0.8"/><rect x="22.0" y="322.2" width="8" height="8" fill="#0f766e" stroke="#fff" stroke-width="0.8"/><rect x="22.0" y="262.2" width="8" height="8" fill="#0f766e" stroke="#fff" stroke-width="0.8"/><rect x="22.0" y="202.1" width="8" height="8" fill="#0f766e" stroke="#fff" stroke-width="0.8"/><rect x="202.1" y="382.3" width="8" height="8" fill="#0f766e" stroke="#fff" stroke-width="0.8"/><rect x="202.1" y="157.1" width="8" height="8" fill="#0f766e" stroke="#fff" stroke-width="0.8"/><rect x="382.3" y="382.3" width="8" height="8" fill="#0f766e" stroke="#fff" stroke-width="0.8"/><rect x="382.3" y="112.1" width="8" height="8" fill="#0f766e" stroke="#fff" stroke-width="0.8"/><rect x="562.4" y="382.3" width="8" height="8" fill="#0f766e" stroke="#fff" stroke-width="0.8"/><rect x="562.4" y="67.0" width="8" height="8" fill="#0f766e" stroke="#fff" stroke-width="0.8"/><rect x="742.5" y="382.3" width="8" height="8" fill="#0f766e" stroke="#fff" stroke-width="0.8"/><rect x="742.5" y="262.2" width="8" height="8" fill="#0f766e" stroke="#fff" stroke-width="0.8"/><rect x="742.5" y="142.1" width="8" height="8" fill="#0f766e" stroke="#fff" stroke-width="0.8"/><rect x="742.5" y="22.0" width="8" height="8" fill="#0f766e" stroke="#fff" stroke-width="0.8"/></svg>