<svg xmlns="http://www.w3.org/2000/svg" viewBox="0 0 900 745" width="900" height="745"><rect width="900" height="745" fill="#ffffff"/><polygon points="718.9,372.5 545.7,372.5 507.8,507.8 718.9,545.7" fill="#dbeafe" fill-opacity="0.5" stroke="#94a3b8" stroke-width="0.8"/><polygon points="372.5,26.0 199.2,26.0 237.1,237.1 372.5,199.2" fill="#dbeafe" fill-opacity="0.5" stroke="#94a3b8" stroke-width="0.8"/><polygon points="372.5,372.5 199.2,545.7 372.5,718.9 507.8,507.8" fill="#dbeafe" fill-opacity="0.5" stroke="#94a3b8" stroke-width="0.8"/><polygon points="372.5,372.5 237.1,237.1 26.0,372.5 199.2,545.7" fill="#dbeafe" fill-opacity="0.5" stroke="#94a3b8" stroke-width="0.8"/><polygon points="718.9,545.7 507.8,507.8 372.5,718.9 718.9,718.9" fill="#dbeafe" fill-opacity="0.5" stroke="#94a3b8" stroke-width="0.8"/><polygon points="26.0,372.5 237.1,237.1 199.2,26.0 26.0,26.0" fill="#dbeafe" fill-opacity="0.5" stroke="#94a3b8" stroke-width="0.8"/><polygon points="507.8,507.8 545.7,372.5 372.5,372.5" fill="#dbeafe" fill-opacity="0.5" stroke="#94a3b8" stroke-width="0.8"/><polygon points="372.5,718.9 199.2,545.7 26.0,718.9" fill="#dbeafe" fill-opacity="0.5" stroke="#94a3b8" stroke-width="0.8"/><polygon points="26.0,372.5 26.0,718.9 199.2,545.7" fill="#dbeafe" fill-opacity="0.5" stroke="#94a3b8" stroke-width="0.8"/><polygon points="372.5,372.5 372.5,199.2 237.1,237.1" fill="#dbeafe" fill-opacity="0.5" stroke="#94a3b8" stroke-width="0.8"/><rect x="22.0" y="714.9" width="8" height="8" fill="#0f766e" stroke="#fff" stroke-width="0.8"/><rect x="714.9" y="714.9" width="8" height="8" fill="#0f766e" stroke="#fff" stroke-width="0.8"/><rect x="714.9" y="368.5" width="8" height="8" fill="#0f766e" stroke="#fff" stroke-width="0.8"/><rect x="368.5" y="368.5" width="8" height="8" fill="#0f766e" stroke="#fff" stroke-width="0.8"/><rect x="368.5" y="22.0" width="8" height="8" fill="#0f766e" stroke="#fff" stroke-width="0.8"/><rect x="22.0" y="22.0" width="8" height="8" fill="#0f766e" stroke="#fff" stroke-width="0.8"/><rect x="714.9" y="541.7" width="8" height="8" fill="#0f766e" stroke="#fff" stroke-width="0.8"/><rect x="541.7" y="368.5" width="8" height="8" fill="#0f766e" stroke="#fff" stroke-width="0.8"/><rect x="368.5" y="714.9" width="8" height="8" fill="#0f766e" stroke="#fff" stroke-width="0.8"/><rect x="22.0" y="368.5" width="8" height="8" fill="#0f766e" stroke="#fff" stroke-width="0.8"/><rect x="368.5" y="195.2" width="8" height="8" fill="#0f766e" stroke="#fff" stroke-width="0.8"/><rect x="195.2" y="22.0" width="8" height="8" fill="#0f766e" stroke="#fff" stroke-width="0.8"/></svg>