<svg xmlns="http://www.w3.org/2000/svg" viewBox="0 0 560 452" width="560" height="452"><rect width="560" height="452" fill="#fff"/><text x="280" y="26" font-family="Segoe UI,Arial" font-size="14" fill="#1e3a8a" text-anchor="middle" font-weight="bold">Valdivia building — 15 × 15 m, 3 storeys — elevation</text><line x1="70" y1="214" x2="430" y2="214" stroke="#2563eb" stroke-width="3"/><line x1="70" y1="142" x2="430" y2="142" stroke="#2563eb" stroke-width="3"/><line x1="70" y1="70" x2="430" y2="70" stroke="#2563eb" stroke-width="3"/><line x1="70" y1="286" x2="70" y2="70" stroke="#1e3a8a" stroke-width="4"/><line x1="190" y1="286" x2="190" y2="70" stroke="#1e3a8a" stroke-width="4"/><line x1="310" y1="286" x2="310" y2="70" stroke="#1e3a8a" stroke-width="4"/><line x1="430" y1="286" x2="430" y2="70" stroke="#1e3a8a" stroke-width="4"/><line x1="50" y1="286" x2="450" y2="286" stroke="#334155" stroke-width="1.5"/><line x1="50" y1="286" x2="42" y2="295" stroke="#334155" stroke-width="1"/><line x1="86.36363636363637" y1="286" x2="78.36363636363637" y2="295" stroke="#334155" stroke-width="1"/><line x1="122.72727272727273" y1="286" x2="114.72727272727273" y2="295" stroke="#334155" stroke-width="1"/><line x1="159.0909090909091" y1="286" x2="151.0909090909091" y2="295" stroke="#334155" stroke-width="1"/><line x1="195.45454545454547" y1="286" x2="187.45454545454547" y2="295" stroke="#334155" stroke-width="1"/><line x1="231.8181818181818" y1="286" x2="223.8181818181818" y2="295" stroke="#334155" stroke-width="1"/><line x1="268.1818181818182" y1="286" x2="260.1818181818182" y2="295" stroke="#334155" stroke-width="1"/><line x1="304.5454545454545" y1="286" x2="296.5454545454545" y2="295" stroke="#334155" stroke-width="1"/><line x1="340.90909090909093" y1="286" x2="332.90909090909093" y2="295" stroke="#334155" stroke-width="1"/><line x1="377.27272727272725" y1="286" x2="369.27272727272725" y2="295" stroke="#334155" stroke-width="1"/><line x1="413.6363636363636" y1="286" x2="405.6363636363636" y2="295" stroke="#334155" stroke-width="1"/><line x1="450" y1="286" x2="442" y2="295" stroke="#334155" stroke-width="1"/><path d="M70,286 l-7,10 h14 z" fill="#0f766e"/><path d="M190,286 l-7,10 h14 z" fill="#0f766e"/><path d="M310,286 l-7,10 h14 z" fill="#0f766e"/><path d="M430,286 l-7,10 h14 z" fill="#0f766e"/><line x1="470" y1="286" x2="470" y2="214" stroke="#64748b" stroke-width="0.8"/><line x1="465" y1="286" x2="475" y2="286" stroke="#64748b" stroke-width="0.8"/><line x1="465" y1="214" x2="475" y2="214" stroke="#64748b" stroke-width="0.8"/><rect x="462" y="230" width="12" height="40" fill="#fff"/><text x="470" y="250" font-family="Segoe UI,Arial" font-size="10.5" fill="#334155" text-anchor="middle" transform="rotate(-90 470 250)">3 m</text><line x1="470" y1="214" x2="470" y2="142" stroke="#64748b" stroke-width="0.8"/><line x1="465" y1="214" x2="475" y2="214" stroke="#64748b" stroke-width="0.8"/><line x1="465" y1="142" x2="475" y2="142" stroke="#64748b" stroke-width="0.8"/><rect x="462" y="158" width="12" height="40" fill="#fff"/><text x="470" y="178" font-family="Segoe UI,Arial" font-size="10.5" fill="#334155" text-anchor="middle" transform="rotate(-90 470 178)">3 m</text><line x1="470" y1="142" x2="470" y2="70" stroke="#64748b" stroke-width="0.8"/><line x1="465" y1="142" x2="475" y2="142" stroke="#64748b" stroke-width="0.8"/><line x1="465" y1="70" x2="475" y2="70" stroke="#64748b" stroke-width="0.8"/><rect x="462" y="86" width="12" height="40" fill="#fff"/><text x="470" y="106" font-family="Segoe UI,Arial" font-size="10.5" fill="#334155" text-anchor="middle" transform="rotate(-90 470 106)">3 m</text><line x1="500" y1="286" x2="500" y2="70" stroke="#64748b" stroke-width="0.8"/><line x1="495" y1="286" x2="505" y2="286" stroke="#64748b" stroke-width="0.8"/><line x1="495" y1="70" x2="505" y2="70" stroke="#64748b" stroke-width="0.8"/><rect x="492" y="158" width="12" height="40" fill="#fff"/><text x="500" y="178" font-family="Segoe UI,Arial" font-size="10.5" fill="#334155" text-anchor="middle" transform="rotate(-90 500 178)">9 m</text><line x1="70" y1="44" x2="190" y2="44" stroke="#64748b" stroke-width="0.8"/><line x1="70" y1="39" x2="70" y2="49" stroke="#64748b" stroke-width="0.8"/><line x1="190" y1="39" x2="190" y2="49" stroke="#64748b" stroke-width="0.8"/><rect x="110" y="36" width="40" height="12" fill="#fff"/><text x="130" y="47" font-family="Segoe UI,Arial" font-size="10.5" fill="#334155" text-anchor="middle">5 m</text><line x1="190" y1="44" x2="310" y2="44" stroke="#64748b" stroke-width="0.8"/><line x1="190" y1="39" x2="190" y2="49" stroke="#64748b" stroke-width="0.8"/><line x1="310" y1="39" x2="310" y2="49" stroke="#64748b" stroke-width="0.8"/><rect x="230" y="36" width="40" height="12" fill="#fff"/><text x="250" y="47" font-family="Segoe UI,Arial" font-size="10.5" fill="#334155" text-anchor="middle">5 m</text><line x1="310" y1="44" x2="430" y2="44" stroke="#64748b" stroke-width="0.8"/><line x1="310" y1="39" x2="310" y2="49" stroke="#64748b" stroke-width="0.8"/><line x1="430" y1="39" x2="430" y2="49" stroke="#64748b" stroke-width="0.8"/><rect x="350" y="36" width="40" height="12" fill="#fff"/><text x="370" y="47" font-family="Segoe UI,Arial" font-size="10.5" fill="#334155" text-anchor="middle">5 m</text><text x="40" y="218" font-family="Segoe UI,Arial" font-size="10" fill="#64748b" text-anchor="end">L1</text><text x="40" y="146" font-family="Segoe UI,Arial" font-size="10" fill="#64748b" text-anchor="end">L2</text><text x="40" y="74" font-family="Segoe UI,Arial" font-size="10" fill="#64748b" text-anchor="end">L3</text><rect x="70" y="368" width="14" height="10" fill="none" stroke="#1e3a8a" stroke-width="1"/><text x="90" y="376" font-family="Segoe UI,Arial" font-size="11" fill="#334155">Column 50×50 (8Φ25)</text><rect x="70" y="385" width="14" height="10" fill="none" stroke="#2563eb" stroke-width="1"/><text x="90" y="393" font-family="Segoe UI,Arial" font-size="11" fill="#334155">Beam 30×50 (3Φ22)</text><rect x="70" y="402" width="14" height="10" fill="none" stroke="#fff" stroke-width="1"/><text x="90" y="410" font-family="Segoe UI,Arial" font-size="11" fill="#334155">Concrete H30 · E = 28.7 GPa</text></svg>