<svg xmlns="http://www.w3.org/2000/svg" viewBox="0 0 560 656" width="560" height="656"><rect width="560" height="656" fill="#fff"/><text x="280" y="26" font-family="Segoe UI,Arial" font-size="14" fill="#1e3a8a" text-anchor="middle" font-weight="bold">Edificio Valdivia — 15 × 15 m, 3 niveles — planta</text><rect x="70" y="70" width="420" height="420" fill="#dbeafe" fill-opacity="0.5"/><rect x="210" y="210" width="140" height="140" fill="#fff"/><line x1="70" y1="490" x2="70" y2="70" stroke="#2563eb" stroke-width="2"/><line x1="210" y1="490" x2="210" y2="70" stroke="#2563eb" stroke-width="2"/><line x1="350" y1="490" x2="350" y2="70" stroke="#2563eb" stroke-width="2"/><line x1="490" y1="490" x2="490" y2="70" stroke="#2563eb" stroke-width="2"/><line x1="70" y1="490" x2="490" y2="490" stroke="#2563eb" stroke-width="2"/><line x1="70" y1="350" x2="490" y2="350" stroke="#2563eb" stroke-width="2"/><line x1="70" y1="210" x2="490" y2="210" stroke="#2563eb" stroke-width="2"/><line x1="70" y1="70" x2="490" y2="70" stroke="#2563eb" stroke-width="2"/><line x1="210" y1="210" x2="350" y2="210" stroke="#0f766e" stroke-width="4"/><line x1="210" y1="350" x2="210" y2="210" stroke="#0f766e" stroke-width="4"/><line x1="350" y1="350" x2="350" y2="210" stroke="#0f766e" stroke-width="4"/><text x="280" y="280" font-family="Segoe UI,Arial" font-size="10" fill="#0f766e" text-anchor="middle">escalera</text><text x="280" y="365" font-family="Segoe UI,Arial" font-size="9.5" fill="#0f766e" text-anchor="middle">↑ acceso</text><rect x="63" y="483" width="14" height="14" fill="#1e3a8a"/><rect x="63" y="343" width="14" height="14" fill="#1e3a8a"/><rect x="63" y="203" width="14" height="14" fill="#1e3a8a"/><rect x="63" y="63" width="14" height="14" fill="#1e3a8a"/><rect x="203" y="483" width="14" height="14" fill="#1e3a8a"/><rect x="203" y="343" width="14" height="14" fill="#1e3a8a"/><rect x="203" y="203" width="14" height="14" fill="#1e3a8a"/><rect x="203" y="63" width="14" height="14" fill="#1e3a8a"/><rect x="343" y="483" width="14" height="14" fill="#1e3a8a"/><rect x="343" y="343" width="14" height="14" fill="#1e3a8a"/><rect x="343" y="203" width="14" height="14" fill="#1e3a8a"/><rect x="343" y="63" width="14" height="14" fill="#1e3a8a"/><rect x="483" y="483" width="14" height="14" fill="#1e3a8a"/><rect x="483" y="343" width="14" height="14" fill="#1e3a8a"/><rect x="483" y="203" width="14" height="14" fill="#1e3a8a"/><rect x="483" y="63" width="14" height="14" fill="#1e3a8a"/><line x1="70" y1="36" x2="210" y2="36" stroke="#64748b" stroke-width="0.8"/><line x1="70" y1="31" x2="70" y2="41" stroke="#64748b" stroke-width="0.8"/><line x1="210" y1="31" x2="210" y2="41" stroke="#64748b" stroke-width="0.8"/><rect x="120" y="28" width="40" height="12" fill="#fff"/><text x="140" y="39" font-family="Segoe UI,Arial" font-size="10.5" fill="#334155" text-anchor="middle">5 m</text><line x1="210" y1="36" x2="350" y2="36" stroke="#64748b" stroke-width="0.8"/><line x1="210" y1="31" x2="210" y2="41" stroke="#64748b" stroke-width="0.8"/><line x1="350" y1="31" x2="350" y2="41" stroke="#64748b" stroke-width="0.8"/><rect x="260" y="28" width="40" height="12" fill="#fff"/><text x="280" y="39" font-family="Segoe UI,Arial" font-size="10.5" fill="#334155" text-anchor="middle">5 m</text><line x1="350" y1="36" x2="490" y2="36" stroke="#64748b" stroke-width="0.8"/><line x1="350" y1="31" x2="350" y2="41" stroke="#64748b" stroke-width="0.8"/><line x1="490" y1="31" x2="490" y2="41" stroke="#64748b" stroke-width="0.8"/><rect x="400" y="28" width="40" height="12" fill="#fff"/><text x="420" y="39" font-family="Segoe UI,Arial" font-size="10.5" fill="#334155" text-anchor="middle">5 m</text><line x1="36" y1="490" x2="36" y2="350" stroke="#64748b" stroke-width="0.8"/><line x1="31" y1="490" x2="41" y2="490" stroke="#64748b" stroke-width="0.8"/><line x1="31" y1="350" x2="41" y2="350" stroke="#64748b" stroke-width="0.8"/><rect x="28" y="400" width="12" height="40" fill="#fff"/><text x="36" y="420" font-family="Segoe UI,Arial" font-size="10.5" fill="#334155" text-anchor="middle" transform="rotate(-90 36 420)">5 m</text><line x1="36" y1="350" x2="36" y2="210" stroke="#64748b" stroke-width="0.8"/><line x1="31" y1="350" x2="41" y2="350" stroke="#64748b" stroke-width="0.8"/><line x1="31" y1="210" x2="41" y2="210" stroke="#64748b" stroke-width="0.8"/><rect x="28" y="260" width="12" height="40" fill="#fff"/><text x="36" y="280" font-family="Segoe UI,Arial" font-size="10.5" fill="#334155" text-anchor="middle" transform="rotate(-90 36 280)">5 m</text><line x1="36" y1="210" x2="36" y2="70" stroke="#64748b" stroke-width="0.8"/><line x1="31" y1="210" x2="41" y2="210" stroke="#64748b" stroke-width="0.8"/><line x1="31" y1="70" x2="41" y2="70" stroke="#64748b" stroke-width="0.8"/><rect x="28" y="120" width="12" height="40" fill="#fff"/><text x="36" y="140" font-family="Segoe UI,Arial" font-size="10.5" fill="#334155" text-anchor="middle" transform="rotate(-90 36 140)">5 m</text><text x="504" y="494" font-family="Segoe UI,Arial" font-size="11" fill="#94a3b8">X</text><text x="66" y="60" font-family="Segoe UI,Arial" font-size="11" fill="#94a3b8">Y</text><rect x="70" y="572" width="14" height="10" fill="#1e3a8a" stroke="#1e3a8a" stroke-width="1"/><text x="90" y="580" font-family="Segoe UI,Arial" font-size="11" fill="#334155">Pilar 50×50 (8Φ25)</text><rect x="70" y="589" width="14" height="10" fill="none" stroke="#2563eb" stroke-width="1"/><text x="90" y="597" font-family="Segoe UI,Arial" font-size="11" fill="#334155">Viga 30×50 (3Φ22)</text><rect x="70" y="606" width="14" height="10" fill="#dbeafe" stroke="#334155" stroke-width="1"/><text x="90" y="614" font-family="Segoe UI,Arial" font-size="11" fill="#334155">Losa: placa e = 0.15 m</text><rect x="70" y="623" width="14" height="10" fill="none" stroke="#0f766e" stroke-width="1"/><text x="90" y="631" font-family="Segoe UI,Arial" font-size="11" fill="#334155">Caja escalera: muros shell e = 0.20 m (C, acceso en y=5)</text><rect x="70" y="640" width="14" height="10" fill="none" stroke="#fff" stroke-width="1"/><text x="90" y="648" font-family="Segoe UI,Arial" font-size="11" fill="#334155">Hormigón H30 · E = 28.7 GPa</text></svg>