<svg xmlns="http://www.w3.org/2000/svg" viewBox="0 0 560 656" width="560" height="656"><rect width="560" height="656" fill="#fff"/><text x="280" y="26" font-family="Segoe UI,Arial" font-size="14" fill="#1e3a8a" text-anchor="middle" font-weight="bold">Steel frame — 20 × 20 m, 5 storeys — plan</text><line x1="70" y1="490" x2="70" y2="70" stroke="#2563eb" stroke-width="2"/><line x1="210" y1="490" x2="210" y2="70" stroke="#2563eb" stroke-width="2"/><line x1="350" y1="490" x2="350" y2="70" stroke="#2563eb" stroke-width="2"/><line x1="490" y1="490" x2="490" y2="70" stroke="#2563eb" stroke-width="2"/><line x1="70" y1="490" x2="490" y2="490" stroke="#2563eb" stroke-width="2"/><line x1="70" y1="350" x2="490" y2="350" stroke="#2563eb" stroke-width="2"/><line x1="70" y1="210" x2="490" y2="210" stroke="#2563eb" stroke-width="2"/><line x1="70" y1="70" x2="490" y2="70" stroke="#2563eb" stroke-width="2"/><rect x="64.75" y="484.75" width="10.5" height="10.5" fill="#1e3a8a"/><rect x="64.75" y="344.75" width="10.5" height="10.5" fill="#1e3a8a"/><rect x="64.75" y="204.75" width="10.5" height="10.5" fill="#1e3a8a"/><rect x="64.75" y="64.75" width="10.5" height="10.5" fill="#1e3a8a"/><rect x="204.75" y="484.75" width="10.5" height="10.5" fill="#1e3a8a"/><rect x="204.75" y="344.75" width="10.5" height="10.5" fill="#1e3a8a"/><rect x="204.75" y="204.75" width="10.5" height="10.5" fill="#1e3a8a"/><rect x="204.75" y="64.75" width="10.5" height="10.5" fill="#1e3a8a"/><rect x="344.75" y="484.75" width="10.5" height="10.5" fill="#1e3a8a"/><rect x="344.75" y="344.75" width="10.5" height="10.5" fill="#1e3a8a"/><rect x="344.75" y="204.75" width="10.5" height="10.5" fill="#1e3a8a"/><rect x="344.75" y="64.75" width="10.5" height="10.5" fill="#1e3a8a"/><rect x="484.75" y="484.75" width="10.5" height="10.5" fill="#1e3a8a"/><rect x="484.75" y="344.75" width="10.5" height="10.5" fill="#1e3a8a"/><rect x="484.75" y="204.75" width="10.5" height="10.5" fill="#1e3a8a"/><rect x="484.75" y="64.75" width="10.5" height="10.5" fill="#1e3a8a"/><line x1="70" y1="36" x2="210" y2="36" stroke="#64748b" stroke-width="0.8"/><line x1="70" y1="31" x2="70" y2="41" stroke="#64748b" stroke-width="0.8"/><line x1="210" y1="31" x2="210" y2="41" stroke="#64748b" stroke-width="0.8"/><rect x="120" y="28" width="40" height="12" fill="#fff"/><text x="140" y="39" font-family="Segoe UI,Arial" font-size="10.5" fill="#334155" text-anchor="middle">6.67 m</text><line x1="210" y1="36" x2="350" y2="36" stroke="#64748b" stroke-width="0.8"/><line x1="210" y1="31" x2="210" y2="41" stroke="#64748b" stroke-width="0.8"/><line x1="350" y1="31" x2="350" y2="41" stroke="#64748b" stroke-width="0.8"/><rect x="260" y="28" width="40" height="12" fill="#fff"/><text x="280" y="39" font-family="Segoe UI,Arial" font-size="10.5" fill="#334155" text-anchor="middle">6.67 m</text><line x1="350" y1="36" x2="490" y2="36" stroke="#64748b" stroke-width="0.8"/><line x1="350" y1="31" x2="350" y2="41" stroke="#64748b" stroke-width="0.8"/><line x1="490" y1="31" x2="490" y2="41" stroke="#64748b" stroke-width="0.8"/><rect x="400" y="28" width="40" height="12" fill="#fff"/><text x="420" y="39" font-family="Segoe UI,Arial" font-size="10.5" fill="#334155" text-anchor="middle">6.67 m</text><line x1="36" y1="490" x2="36" y2="350" stroke="#64748b" stroke-width="0.8"/><line x1="31" y1="490" x2="41" y2="490" stroke="#64748b" stroke-width="0.8"/><line x1="31" y1="350" x2="41" y2="350" stroke="#64748b" stroke-width="0.8"/><rect x="28" y="400" width="12" height="40" fill="#fff"/><text x="36" y="420" font-family="Segoe UI,Arial" font-size="10.5" fill="#334155" text-anchor="middle" transform="rotate(-90 36 420)">6.67 m</text><line x1="36" y1="350" x2="36" y2="210" stroke="#64748b" stroke-width="0.8"/><line x1="31" y1="350" x2="41" y2="350" stroke="#64748b" stroke-width="0.8"/><line x1="31" y1="210" x2="41" y2="210" stroke="#64748b" stroke-width="0.8"/><rect x="28" y="260" width="12" height="40" fill="#fff"/><text x="36" y="280" font-family="Segoe UI,Arial" font-size="10.5" fill="#334155" text-anchor="middle" transform="rotate(-90 36 280)">6.67 m</text><line x1="36" y1="210" x2="36" y2="70" stroke="#64748b" stroke-width="0.8"/><line x1="31" y1="210" x2="41" y2="210" stroke="#64748b" stroke-width="0.8"/><line x1="31" y1="70" x2="41" y2="70" stroke="#64748b" stroke-width="0.8"/><rect x="28" y="120" width="12" height="40" fill="#fff"/><text x="36" y="140" font-family="Segoe UI,Arial" font-size="10.5" fill="#334155" text-anchor="middle" transform="rotate(-90 36 140)">6.67 m</text><text x="504" y="494" font-family="Segoe UI,Arial" font-size="11" fill="#94a3b8">X</text><text x="66" y="60" font-family="Segoe UI,Arial" font-size="11" fill="#94a3b8">Y</text><rect x="70" y="572" width="14" height="10" fill="#1e3a8a" stroke="#1e3a8a" stroke-width="1"/><text x="90" y="580" font-family="Segoe UI,Arial" font-size="11" fill="#334155">Column W14 · Mp = 897 kN·m</text><rect x="70" y="589" width="14" height="10" fill="none" stroke="#2563eb" stroke-width="1"/><text x="90" y="597" font-family="Segoe UI,Arial" font-size="11" fill="#334155">Beam W18 · Mp = 449 kN·m</text><rect x="70" y="606" width="14" height="10" fill="none" stroke="#fff" stroke-width="1"/><text x="90" y="614" font-family="Segoe UI,Arial" font-size="11" fill="#334155">Steel A992 · Fy = 345 MPa</text></svg>