<svg xmlns="http://www.w3.org/2000/svg" viewBox="0 0 640 400" width="640" height="400"><rect width="640" height="400" fill="#fff"/><rect x="64" y="24" width="75.67777777777778" height="328" fill="#dcfce7" opacity="0.6"/><text x="101.83888888888889" y="38" font-family="Segoe UI,Arial" font-size="11" fill="#475569" text-anchor="middle">IO</text><rect x="139.67777777777778" y="24" width="194.6" height="328" fill="#fef9c3" opacity="0.6"/><text x="236.97777777777776" y="38" font-family="Segoe UI,Arial" font-size="11" fill="#475569" text-anchor="middle">LS</text><rect x="334.27777777777777" y="24" width="270.27777777777777" height="328" fill="#fee2e2" opacity="0.6"/><text x="469.41666666666663" y="38" font-family="Segoe UI,Arial" font-size="11" fill="#475569" text-anchor="middle">CP</text><line x1="64" y1="352" x2="620" y2="352" stroke="#e2e8f0"/><text x="56" y="356" font-family="Segoe UI,Arial" font-size="11" fill="#475569" text-anchor="end">0</text><line x1="64" y1="293.42857142857144" x2="620" y2="293.42857142857144" stroke="#e2e8f0"/><text x="56" y="297.42857142857144" font-family="Segoe UI,Arial" font-size="11" fill="#475569" text-anchor="end">1000</text><line x1="64" y1="234.85714285714286" x2="620" y2="234.85714285714286" stroke="#e2e8f0"/><text x="56" y="238.85714285714286" font-family="Segoe UI,Arial" font-size="11" fill="#475569" text-anchor="end">2000</text><line x1="64" y1="176.28571428571428" x2="620" y2="176.28571428571428" stroke="#e2e8f0"/><text x="56" y="180.28571428571428" font-family="Segoe UI,Arial" font-size="11" fill="#475569" text-anchor="end">3000</text><line x1="64" y1="117.71428571428572" x2="620" y2="117.71428571428572" stroke="#e2e8f0"/><text x="56" y="121.71428571428572" font-family="Segoe UI,Arial" font-size="11" fill="#475569" text-anchor="end">4000</text><line x1="64" y1="59.14285714285711" x2="620" y2="59.14285714285711" stroke="#e2e8f0"/><text x="56" y="63.14285714285711" font-family="Segoe UI,Arial" font-size="11" fill="#475569" text-anchor="end">5000</text><text x="64" y="368" font-family="Segoe UI,Arial" font-size="11" fill="#475569" text-anchor="middle">0.0</text><text x="187.55555555555554" y="368" font-family="Segoe UI,Arial" font-size="11" fill="#475569" text-anchor="middle">0.2</text><text x="311.1111111111111" y="368" font-family="Segoe UI,Arial" font-size="11" fill="#475569" text-anchor="middle">0.4</text><text x="434.6666666666667" y="368" font-family="Segoe UI,Arial" font-size="11" fill="#475569" text-anchor="middle">0.6</text><text x="558.2222222222222" y="368" font-family="Segoe UI,Arial" font-size="11" fill="#475569" text-anchor="middle">0.8</text><line x1="64" y1="24" x2="64" y2="352" stroke="#94a3b8"/><line x1="64" y1="352" x2="620" y2="352" stroke="#94a3b8"/><text x="342" y="392" font-family="Segoe UI,Arial" font-size="12" fill="#334155" text-anchor="middle">Desplazamiento de techo δ (m)</text><text x="16" y="188" font-family="Segoe UI,Arial" font-size="12" fill="#334155" text-anchor="middle" transform="rotate(-90 16 188)">Cortante basal V (kN)</text><polyline points="64.0,352.0 131.3,143.4 135.0,133.2 137.5,127.3 138.8,125.6 144.3,116.5 144.9,115.7 147.4,112.8 157.9,103.1 159.8,101.7 183.8,86.0 197.4,79.1 239.4,72.6 267.2,68.9 273.4,68.2 419.8,55.4 427.9,54.8 572.4,45.8" fill="none" stroke="#2563eb" stroke-width="2.5"/><line x1="110.47509056385327" y1="24" x2="110.47509056385327" y2="352" stroke="#7c3aed" stroke-width="1.5" stroke-dasharray="4 3"/><circle cx="110.47509056385327" cy="208.00706086081934" r="5" fill="#7c3aed"/><text x="118.47509056385327" y="200.00706086081934" font-family="Segoe UI,Arial" font-size="11" fill="#6d28d9">punto de desempeño δt=75 mm</text></svg>